
        <svg xmlns="http://www.w3.org/2000/svg" xmlns:xlink="http://www.w3.org/1999/xlink" version="1.1" width="3232.972478664226" 
        height="2372.515658002072" viewBox="0 0 3232.972478664226 2372.515658002072">
			<rect fill="#020617" width="3232.972478664226" height="2372.515658002072"/>
			<g transform="scale(11.648623933211292) translate(10, 10)">
				<defs id="SvgjsDefs5927"></defs><g id="SvgjsG5928" featureKey="monogramFeature-0" transform="matrix(4.373177858777794,0,0,4.373177858777794,-10.495627278125445,-78.71719311682548)" fill="#e7e7de"><path d="M2.4 42.78 l0 -24.78 l7.56 0 l0 24.78 l-7.56 0 z M2.4 60 l0 -14.7 l7.56 0 l0 14.7 l-7.56 0 z M12.48 60 l0 -7.56 l10.5 0 l0 7.56 l-10.5 0 z M12.48 42.78 l0 -7.56 l7.14 0 l0 7.56 l-7.14 0 z M12.48 25.56 l0 -7.56 l10.5 0 l0 7.56 l-10.5 0 z"></path></g><g id="SvgjsG5929" featureKey="nameLeftFeature-0" transform="matrix(1,0,0,1,110,92)" fill="#e7e7de"><path d=""></path></g><g id="SvgjsG5930" featureKey="inlineSymbolFeature-0" transform="matrix(0.7359089670985626,0,0,0.7359089670985626,115,73.9886277495357)" fill="#6c10c8">    <title xmlns="http://www.w3.org/2000/svg">Asset 35LETTERS1</title>    <g xmlns="http://www.w3.org/2000/svg" id="Page-1" stroke-width="1" fill-rule="evenodd">        <g id="Artboard" transform="translate(-1360.000000, -53.000000)" fill-rule="nonzero">            <g id="Asset-35LETTERS1" transform="translate(1360.000000, 53.015454)">                <path d="M30.55,36.9445463 L13.63,36.9445463 C12.75,36.9445463 12.03,37.6645463 12.03,38.5445463 C12.03,39.4245463 12.75,40.1445463 13.63,40.1445463 L30.55,40.1445463 C30.8,40.1445463 31.01,40.3545463 31.01,40.6045463 C31.01,40.8145463 30.86,40.9945463 30.65,41.0545463 L10.58,45.7045463 C10.4,45.7445463 10.26,45.6745463 10.19,45.6145463 C10.12,45.5645463 10.02,45.4445463 10.02,45.2545463 L10.02,29.2845463 C10.02,29.0345463 10.23,28.8245463 10.47,28.8245463 L27.8,28.8245463 C29.82,28.8245463 31.47,27.1745463 31.47,25.1545463 L31.47,23.7345463 C31.47,21.7245463 29.82,20.0745463 27.8,20.0745463 L10.47,20.0745463 C10.23,20.0745463 10.02,19.8745463 10.02,19.6145463 L10.02,3.67454628 C10.02,3.48454628 10.12,3.36454628 10.19,3.31454628 C10.25,3.26454628 10.39,3.18454628 10.58,3.22454628 L30.65,7.87454628 C30.86,7.92454628 31.01,8.11454628 31.01,8.32454628 C31.01,8.57454628 30.8,8.78454628 30.55,8.78454628 L13.63,8.78454628 C12.75,8.78454628 12.03,9.50454628 12.03,10.3845463 C12.03,11.2645463 12.75,11.9845463 13.63,11.9845463 L30.55,11.9845463 C32.56,11.9845463 34.21,10.3445463 34.21,8.32454628 C34.21,6.60454628 33.05,5.14454628 31.37,4.76454628 L11.3,0.0945462757 C10.21,-0.155453724 9.07,0.0945462757 8.19,0.794546276 C7.31,1.49454628 6.81,2.54454628 6.81,3.66454628 L6.81,6.98454628 L6.84,6.98454628 L6.84,20.0645463 C7.05,21.8745463 8.6,23.2945463 10.47,23.2945463 L27.8,23.2945463 C28.05,23.2945463 28.26,23.4945463 28.26,23.7545463 L28.26,25.1745463 C28.26,25.4245463 28.05,25.6345463 27.8,25.6345463 L10.47,25.6345463 C8.6,25.6345463 7.05,27.0445463 6.84,28.8645463 L6.84,45.6445463 C6.94,46.6145463 7.42,47.5045463 8.2,48.1245463 C9.08,48.8245463 10.21,49.0745463 11.31,48.8245463 L31.38,44.1745463 C33.05,43.7945463 34.22,42.3245463 34.22,40.6145463 C34.22,38.5945463 32.57,36.9445463 30.56,36.9445463 L30.55,36.9445463 Z" id="Path" stroke="none" fill="#6c10c8"></path>                <path d="M0,12.4245463 L0,36.4845463 C0,38.3445463 1.4,39.8845463 3.2,40.1045463 L3.2,8.80454628 C1.4,9.02454628 0,10.5745463 0,12.4245463 Z" id="Path" stroke="none" fill="#6c10c8"></path>            </g>        </g>    </g></g><g id="SvgjsG5931" featureKey="nameRightFeature-0" transform="matrix(1.2857142857142858,0,0,1.2857142857142858,142.9428572654724,58.57142979758126)" fill="#22d3ee"><path d="M9.2 31.32 l-7.6 -19.32 l5.4 0 l4.2 10.6 l4.16 -10.6 l5.4 0 l-7.6 19.32 l-3.96 0 z M1.68 40 l0 -23.24 l5.04 12.84 l0 10.4 l-5.04 0 z M15.68 40 l0 -10.4 l5.04 -12.84 l0 23.24 l-5.04 0 z M33.683 40 l-2.72 -10.36 l-1.96 0 l0 -5.04 l3.16 0 l0.76 -0.76 l0 -6.04 l-0.76 -0.76 l-3.16 0 l0 -5.04 l5.24 0 l3.72 3.72 l0 10.2 l-2.16 2.2 l3.08 11.88 l-5.2 0 z M22.283 40 l0 -8.68 l5.04 0 l0 8.68 l-5.04 0 z M22.283 29.64 l0 -17.64 l5.04 0 l0 17.64 l-5.04 0 z M45.566 40 l0 -10.4 l-6.36 -17.6 l5.36 0 l6.04 16.72 l0 11.28 l-5.04 0 z M51.646 26.64 l-2.68 -7.4 l2.6 -7.24 l5.36 0 z M61.369 40 l-3.72 -3.72 l0 -20.56 l3.72 -3.72 l3.56 0 l0 5.04 l-1.48 0 l-0.76 0.76 l0 16.4 l0.76 0.76 l1.48 0 l0 5.04 l-3.56 0 z M66.609 40 l0 -5.04 l1.48 0 l0.76 -0.76 l0 -3.16 l5.04 0 l0 5.24 l-3.72 3.72 l-3.56 0 z M68.849 20.96 l0 -3.16 l-0.76 -0.76 l-1.48 0 l0 -5.04 l3.56 0 l3.72 3.72 l0 5.24 l-5.04 0 z M75.412 28.52 l0 -16.52 l5.04 0 l0 16.52 l-5.04 0 z M75.412 40 l0 -9.8 l5.04 0 l0 9.8 l-5.04 0 z M82.132 40 l0 -5.04 l7 0 l0 5.04 l-7 0 z M82.132 28.52 l0 -5.04 l4.76 0 l0 5.04 l-4.76 0 z M82.132 17.04 l0 -5.04 l7 0 l0 5.04 l-7 0 z"></path></g>
			</g>
		</svg>
	